<svg width="800" height="800" viewBox="0 0 800 800" fill="none" xmlns="http://www.w3.org/2000/svg">
<mask id="mask0_27_37" style="mask-type:alpha" maskUnits="userSpaceOnUse" x="0" y="0" width="800" height="800">
<rect width="800" height="800" fill="#D9D9D9"/>
</mask>
<g mask="url(#mask0_27_37)">
<path d="M88.25 164.312C86.75 120.969 120.516 81 166.156 81H633.906C679.547 81 713.312 120.969 711.812 164.312C710.359 205.953 712.234 259.875 725.812 303.859C739.437 347.969 762.391 375.859 800 379.438V420.062C762.391 423.641 739.437 451.531 725.812 495.641C712.234 539.625 710.359 593.547 711.812 635.187C713.312 678.531 679.547 718.5 633.906 718.5H166.156C120.516 718.5 86.75 678.531 88.25 635.187C89.7031 593.547 87.8125 539.625 74.25 495.641C60.625 451.531 37.6094 423.641 0 420.062V379.438C37.6094 375.859 60.625 347.969 74.25 303.859C87.8125 259.875 89.7031 205.953 88.25 164.312Z" fill="url(#paint0_linear_27_37)"/>
<path fill-rule="evenodd" clip-rule="evenodd" d="M535.837 473.366C535.837 533.054 491.306 569.241 417.4 569.241H278.025V230.179H416.681C478.306 230.179 518.744 263.538 518.744 314.757C518.744 350.71 491.556 382.913 456.884 388.538V390.429C504.072 395.601 535.837 428.257 535.837 473.366ZM331.947 526.241V414.632H403.197C454.228 414.632 480.712 433.429 480.712 470.085C480.712 506.741 454.962 526.241 406.337 526.241H331.947ZM331.947 273.179H403.681C442.681 273.179 464.822 290.569 464.822 322.054C464.822 355.647 439.072 374.444 392.369 374.444H331.947V273.179Z" fill="white"/>
</g>
<defs>
<linearGradient id="paint0_linear_27_37" x1="118.75" y1="96.625" x2="817.188" y2="651.312" gradientUnits="userSpaceOnUse">
<stop stop-color="#9013FE"/>
<stop offset="1" stop-color="#6610F2"/>
</linearGradient>
</defs>
</svg>
