<svg width="1920" height="256" viewBox="0 0 1920 256" fill="none" xmlns="http://www.w3.org/2000/svg">
<path d="M0.000244141 85.329L63.9986 92.3952C127.997 99.9947 255.994 113.327 383.991 135.059C511.987 155.991 639.984 185.323 767.981 163.591C895.978 142.659 1023.97 70.6632 1151.97 71.0632C1279.97 70.6632 1407.97 142.659 1535.96 142.259C1663.96 142.659 1791.96 70.6632 1855.95 35.5987L1919.95 0.000976562V255.985H1855.95C1791.96 255.985 1663.96 255.985 1535.96 255.985C1407.97 255.985 1279.97 255.985 1151.97 255.985C1023.97 255.985 895.978 255.985 767.981 255.985C639.984 255.985 511.987 255.985 383.991 255.985C255.994 255.985 127.997 255.985 63.9986 255.985H0.000244141V85.329Z" fill="#070422"/>
</svg>
