<svg width="1920" height="1080" viewBox="0 0 1920 1080" fill="none" xmlns="http://www.w3.org/2000/svg">
<g clip-path="url(#clip0_1_835)">
<path d="M1920 0H0V1080H1920V0Z" fill="#161625"/>
<path d="M1920 486C1854.8 480.6 1789.8 475.2 1734 449C1678.2 422.8 1631.8 375.8 1592 328C1552 280.2 1518.4 231.6 1493.2 176.8C1468 122 1451 61 1434 0H1920V486Z" fill="#091C34"/>
<path d="M1920 388.8C1868 384.4 1815.8 380.2 1771.2 359.2C1726.6 338.2 1689.4 300.8 1657.6 262.4C1625.6 224.2 1598.8 185.4 1578.6 141.4C1558.4 97.6 1544.8 48.8 1531.2 0H1920V388.8Z" fill="#004F78"/>
<path d="M1920 291.6C1881 288.4 1841.8 285.2 1808.4 269.4C1775 253.6 1747.2 225.6 1723.2 196.8C1699.2 168.2 1679 139 1664 106C1648.8 73.2 1638.6 36.6 1628.4 0H1920V291.6Z" fill="#00888F"/>
<path d="M1920 194.4C1894 192.2 1868 190 1845.6 179.6C1823.4 169.2 1804.8 150.4 1788.8 131.2C1772.8 112.2 1759.4 92.6 1749.2 70.8C1739.2 48.8 1732.4 24.4 1725.6 0H1920V194.4Z" fill="#00BE62"/>
<path d="M1920 97.2C1907 96.2 1894 95 1882.8 89.8C1871.6 84.6 1862.4 75.2 1854.4 65.6C1846.4 56 1839.6 46.4 1834.6 35.4C1829.6 24.4 1826.2 12.2 1822.8 0H1920V97.2Z" fill="#00D62D"/>
<path d="M0 594C64.8 600 129.6 605.8 186 631C242.4 656.2 290.6 700.6 332.4 747.6C374.2 794.6 409.6 844.4 434.2 900.2C458.8 956 472.4 1018 486 1080H0V594Z" fill="#091C34"/>
<path d="M0 691.2C51.8 696 103.6 700.6 148.8 720.8C194 741 232.4 776.4 265.8 814.2C299.4 851.8 327.8 891.4 347.4 936.2C367 980.8 378 1030.4 388.8 1080H0V691.2Z" fill="#004F78"/>
<path d="M0 788.4C38.8 792 77.8 795.4 111.6 810.6C145.4 825.8 174.4 852.4 199.4 880.6C224.4 908.8 245.8 938.6 260.6 972C275.2 1005.6 283.4 1042.8 291.6 1080H0V788.4Z" fill="#00888F"/>
<path d="M0 885.6C26 888 51.8 890.4 74.4 900.4C97 910.4 116.2 928.2 133 947C149.6 965.8 163.8 985.8 173.6 1008C183.6 1030.4 189 1055.2 194.4 1080H0V885.6Z" fill="#00BE62"/>
<path d="M0 982.8C13 984 26 985.2 37.2 990.2C48.4 995.2 58.2 1004.2 66.4 1013.6C74.8 1023 82 1032.8 86.8 1044C91.8 1055.2 94.4 1067.6 97.2 1080H0V982.8Z" fill="#00D62D"/>
</g>
<defs>
<clipPath id="clip0_1_835">
<rect width="1920" height="1080" fill="white"/>
</clipPath>
</defs>
</svg>
